<svg xmlns="http://www.w3.org/2000/svg" xmlns:xlink="http://www.w3.org/1999/xlink" width="100%" height="100%" viewBox="0 0 1060 610" preserveAspectRatio="xMinYMin meet" ><rect id="svgEditorBackground" x="0" y="0" width="1060" height="610" style="fill:none;stroke:none"/><g id="e12_group" style="stroke:black;fill:#272726" transform="matrix(0.42407 0 0 0.42407 267.225 116.546)"><path d="M23.062387621403104,-3.9621l-0.06640000000000003,7.9621h6l2,-8Z" style="fill:#272726;stroke:none;vector-effect:non-scaling-stroke;stroke-width:1px" id="e2_shape" transform="matrix(26.3402 0 0 26.1898 393.38 275.785)"/><path d="M-31.2842795186303,-4l-4,4l4,4l4,-4Z" style="fill:#272726;stroke:none;vector-effect:non-scaling-stroke;stroke-width:1px" id="e9_shape" transform="matrix(15.4948 0 0 26.0798 207.166 276.535)"/><rect x="-267.26" y="170.42974" style="fill:#272726;stroke:none;stroke-width:1px" id="e11_rectangle" width="1149.74561" height="209.95" transform="matrix(1.12086 0 0 0.991979 25.1525 3.20875)"/></g><path d="M93.657,-254.23133619594734c-3.124,-3.124,-8.189,-3.124,-11.314,0l-56,56c-1.448,1.448,-2.343,3.448,-2.343,5.657s0.8950000000000001,4.209,2.343,5.657l56,56c3.124,3.124,8.189,3.124,11.314,0s3.124,-8.189,0,-11.314l-50.343,-50.343l50.343,-50.343c3.124,-3.124,3.124,-8.189,0,-11.314Z" style="fill:#ABD454;stroke:none;vector-effect:non-scaling-stroke;stroke-width:1px" id="e13_shape" transform="matrix(0.396527 0 0 0.670367 116.872 362.75)"/><path d="M155.5147450305064,-254.27354162855795c-3.124,-3.124,-8.189,-3.124,-11.314,0l-56,56c-1.448,1.448,-2.343,3.448,-2.343,5.657s0.8950000000000004,4.209,2.343,5.657l56,56c3.124,3.124,8.189,3.124,11.314,0s3.124,-8.189,0,-11.314l-50.343,-50.343l50.343,-50.343c3.124,-3.124,3.124,-8.189,0,-11.314Z" style="fill:#ABD454;stroke:none;vector-effect:non-scaling-stroke;stroke-width:1px" id="e21_shape" transform="matrix(-0.396527 0 0 0.670365 293.56 362.751)"/></svg>