<?xml version="1.0" encoding="UTF-8"?><svg id="Capa_1" xmlns="http://www.w3.org/2000/svg" viewBox="0 0 297 37"><path d="m286,37H13.93C11.88,34.83,0,18,0,18,0,18,12.47,1.83,13.93,0h283.07c-3.67,12.33-7.33,24.67-11,37Z" fill="#272726"/><g><line x1="4.52" y1="17.21" x2="17" y2="34.79" fill="none" stroke="#88a80d" stroke-miterlimit="10" stroke-width="3"/><line x1="17.02" y1="1.29" x2="4.53" y2="18.88" fill="none" stroke="#88a80d" stroke-miterlimit="10" stroke-width="3"/></g><g><line x1="57.02" y1="17.21" x2="44.53" y2="34.79" fill="none" stroke="#88a80d" stroke-miterlimit="10" stroke-width="3"/><line x1="44.52" y1="1.29" x2="57" y2="18.88" fill="none" stroke="#88a80d" stroke-miterlimit="10" stroke-width="3"/></g><g id="Pokéball"><g id="Colours"><path id="Down" d="m82.98,22.31c-2.08,0-3.81-1.47-4.22-3.42h-6.91c.49,5.68,5.25,10.14,11.06,10.14s10.58-4.46,11.06-10.14h-6.77c-.41,1.96-2.14,3.42-4.22,3.42Z" fill="#fff"/><path id="Shadow_Down" d="m85.44,28.74c4.61-1.08,8.11-5.02,8.52-9.85h-2.72c-.27,4.38-2.57,8.09-5.79,9.85Z" fill="#dfdfdf"/><path id="Center" d="m85.52,18h0s0,0,0,0c0-.31-.06-.61-.16-.89-.36-.97-1.29-1.65-2.38-1.65s-2.02.69-2.38,1.65c-.1.28-.16.58-.16.89h0c0,.31.06.61.16.89.36.97,1.29,1.65,2.38,1.65s2.02-.69,2.38-1.65c.1-.27.16-.58.16-.89h0Z" fill="#fff"/><path id="Up" d="m82.98,13.69c2.08,0,3.81,1.47,4.22,3.42h6.91c-.49-5.69-5.25-10.14-11.06-10.14s-10.57,4.46-11.06,10.14h6.77c.41-1.95,2.14-3.42,4.22-3.42Z" fill="#ff1c1c"/><path id="Shadow_Up" d="m91.24,17.11h2.87c-.42-4.91-4.04-8.91-8.77-9.9,3.28,1.73,5.62,5.48,5.9,9.9Z" fill="#df1818"/></g><path id="Line" d="m83.05,6.97c5.81,0,10.58,4.46,11.06,10.14h-6.91c-.41-1.95-2.14-3.42-4.22-3.42s-3.81,1.47-4.22,3.42h-6.77c.49-5.68,5.25-10.14,11.06-10.14Zm2.31,10.14c.1.28.16.58.16.89h0c0,.31-.06.61-.16.89-.36.97-1.29,1.65-2.38,1.65s-2.02-.69-2.38-1.65c-.1-.28-.16-.58-.16-.89h0c0-.31.06-.61.16-.89.36-.97,1.29-1.65,2.38-1.65s2.02.69,2.38,1.65Zm-2.45,11.92c-5.81,0-10.58-4.46-11.06-10.14h6.91c.41,1.95,2.14,3.42,4.22,3.42s3.81-1.47,4.22-3.42h6.77c-.49,5.68-5.25,10.14-11.06,10.14Zm.07-24.18c-7.26,0-13.15,5.89-13.15,13.15s5.89,13.15,13.15,13.15,13.15-5.88,13.15-13.15-5.89-13.15-13.15-13.15Z" fill="#4f4d4b"/></g></svg>