<?xml version="1.0" encoding="UTF-8"?><svg id="Capa_1" xmlns="http://www.w3.org/2000/svg" xmlns:xlink="http://www.w3.org/1999/xlink" viewBox="0 0 720 1280"><defs><pattern id="hatch-black-dash-4" x="0" y="0" width="21.09" height="17.57" patternTransform="translate(1671.63 -13210.54) scale(1 -1)" patternUnits="userSpaceOnUse" viewBox="0 0 21.09 17.57"><g><rect width="21.09" height="17.57" fill="none"/><g><rect width="21.09" height="17.57" fill="none"/><line x1="-3.53" x2="3.53" fill="none" stroke="#000" stroke-dasharray="0 0 0 0 0 0 0 0 0 0 0 0" stroke-miterlimit="1.18" stroke-width=".29"/><line x1="17.56" x2="24.62" fill="none" stroke="#000" stroke-dasharray="0 0 0 0 0 0 0 0 0 0 0 0" stroke-miterlimit="1.18" stroke-width=".29"/><line x1="-3.53" y1="5.86" x2="3.53" y2="5.86" fill="none" stroke="#000" stroke-dasharray="0 0 0 0 0 0 0 0 0 0 0 0" stroke-miterlimit="1.18" stroke-width=".29"/><line x1="7.02" y1="2.93" x2="14.08" y2="2.93" fill="none" stroke="#000" stroke-dasharray="0 0 0 0 0 0 0 0 0 0 0 0" stroke-miterlimit="1.18" stroke-width=".29"/><line x1="17.56" y1="5.86" x2="24.62" y2="5.86" fill="none" stroke="#000" stroke-dasharray="0 0 0 0 0 0 0 0 0 0 0 0" stroke-miterlimit="1.18" stroke-width=".29"/><line x1="-3.53" y1="11.71" x2="3.53" y2="11.71" fill="none" stroke="#000" stroke-dasharray="0 0 0 0 0 0 0 0 0 0 0 0" stroke-miterlimit="1.18" stroke-width=".29"/><line x1="7.02" y1="8.79" x2="14.08" y2="8.79" fill="none" stroke="#000" stroke-dasharray="0 0 0 0 0 0 0 0 0 0 0 0" stroke-miterlimit="1.18" stroke-width=".29"/><line x1="17.56" y1="11.71" x2="24.62" y2="11.71" fill="none" stroke="#000" stroke-dasharray="0 0 0 0 0 0 0 0 0 0 0 0" stroke-miterlimit="1.18" stroke-width=".29"/><line x1="-3.53" y1="17.57" x2="3.53" y2="17.57" fill="none" stroke="#000" stroke-dasharray="0 0 0 0 0 0 0 0 0 0 0 0" stroke-miterlimit="1.18" stroke-width=".29"/><line x1="7.02" y1="14.64" x2="14.08" y2="14.64" fill="none" stroke="#000" stroke-dasharray="0 0 0 0 0 0 0 0 0 0 0 0" stroke-miterlimit="1.18" stroke-width=".29"/><line x1="17.56" y1="17.57" x2="24.62" y2="17.57" fill="none" stroke="#000" stroke-dasharray="0 0 0 0 0 0 0 0 0 0 0 0" stroke-miterlimit="1.18" stroke-width=".29"/></g></g></pattern></defs><g id="Capa_3"><rect x=".67" width="719.15" height="1278.31" fill="#00b58f"/><rect x=".13" y="568.63" width="719.15" height="66.58" fill="#272726"/><rect x=".67" y="502.67" width="719.15" height="66.58" fill="#2f3030"/></g><g id="Capa_1-2" opacity=".5"><line x1="19.98" y1="1278.97" x2="19.98" y2=".67" fill="none" stroke="#000" stroke-miterlimit="10"/><line x1="39.95" y1="1278.97" x2="39.95" y2=".67" fill="none" stroke="#000" stroke-miterlimit="10"/><line x1="59.93" y1="1279.12" x2="59.93" y2=".81" fill="none" stroke="#000" stroke-miterlimit="10"/><line x1="79.91" y1="1279.12" x2="79.91" y2=".81" fill="none" stroke="#000" stroke-miterlimit="10"/><line x1="99.88" y1="1279.05" x2="99.88" y2=".74" fill="none" stroke="#000" stroke-miterlimit="10"/><line x1="119.86" y1="1279.05" x2="119.86" y2=".74" fill="none" stroke="#000" stroke-miterlimit="10"/><line x1="139.83" y1="1279.19" x2="139.83" y2=".89" fill="none" stroke="#000" stroke-miterlimit="10"/><line x1="159.81" y1="1279.19" x2="159.81" y2=".89" fill="none" stroke="#000" stroke-miterlimit="10"/><line x1="180.59" y1="1279.51" x2="180.59" y2="1.21" fill="none" stroke="#000" stroke-miterlimit="10"/><line x1="200.56" y1="1279.51" x2="200.56" y2="1.21" fill="none" stroke="#000" stroke-miterlimit="10"/><line x1="220.54" y1="1279.66" x2="220.54" y2="1.35" fill="none" stroke="#000" stroke-miterlimit="10"/><line x1="240.52" y1="1279.66" x2="240.52" y2="1.35" fill="none" stroke="#000" stroke-miterlimit="10"/><line x1="260.49" y1="1279.59" x2="260.49" y2="1.28" fill="none" stroke="#000" stroke-miterlimit="10"/><line x1="280.47" y1="1279.59" x2="280.47" y2="1.28" fill="none" stroke="#000" stroke-miterlimit="10"/><line x1="300.44" y1="1279.73" x2="300.44" y2="1.42" fill="none" stroke="#000" stroke-miterlimit="10"/><line x1="320.42" y1="1279.73" x2="320.42" y2="1.42" fill="none" stroke="#000" stroke-miterlimit="10"/><line x1="339.33" y1="1279.25" x2="339.33" y2=".94" fill="none" stroke="#000" stroke-miterlimit="10"/><line x1="359.31" y1="1279.25" x2="359.31" y2=".94" fill="none" stroke="#000" stroke-miterlimit="10"/><line x1="379.28" y1="1279.39" x2="379.28" y2="1.08" fill="none" stroke="#000" stroke-miterlimit="10"/><line x1="399.26" y1="1279.39" x2="399.26" y2="1.08" fill="none" stroke="#000" stroke-miterlimit="10"/><line x1="419.24" y1="1279.31" x2="419.24" y2="1.01" fill="none" stroke="#000" stroke-miterlimit="10"/><line x1="439.21" y1="1279.31" x2="439.21" y2="1.01" fill="none" stroke="#000" stroke-miterlimit="10"/><line x1="459.19" y1="1279.46" x2="459.19" y2="1.15" fill="none" stroke="#000" stroke-miterlimit="10"/><line x1="479.17" y1="1279.46" x2="479.17" y2="1.15" fill="none" stroke="#000" stroke-miterlimit="10"/><line x1="499.94" y1="1279.78" x2="499.94" y2="1.47" fill="none" stroke="#000" stroke-miterlimit="10"/><line x1="519.92" y1="1279.78" x2="519.92" y2="1.47" fill="none" stroke="#000" stroke-miterlimit="10"/><line x1="539.89" y1="1279.93" x2="539.89" y2="1.62" fill="none" stroke="#000" stroke-miterlimit="10"/><line x1="559.87" y1="1279.93" x2="559.87" y2="1.62" fill="none" stroke="#000" stroke-miterlimit="10"/><line x1="579.85" y1="1279.85" x2="579.85" y2="1.54" fill="none" stroke="#000" stroke-miterlimit="10"/><line x1="599.82" y1="1279.85" x2="599.82" y2="1.54" fill="none" stroke="#000" stroke-miterlimit="10"/><line x1="619.8" y1="1280" x2="619.8" y2="1.69" fill="none" stroke="#000" stroke-miterlimit="10"/><line x1="639.78" y1="1280" x2="639.78" y2="1.69" fill="none" stroke="#000" stroke-miterlimit="10"/><line x1="659.35" y1="1279.55" x2="659.35" y2="1.24" fill="none" stroke="#000" stroke-miterlimit="10"/><line x1="679.33" y1="1279.69" x2="679.33" y2="1.38" fill="none" stroke="#000" stroke-miterlimit="10"/><line x1="699.3" y1="1279.69" x2="699.3" y2="1.38" fill="none" stroke="#000" stroke-miterlimit="10"/><line x1="718.79" y1="640.53" x2=".21" y2="640.53" fill="none" stroke="#000" stroke-miterlimit="10"/><line x1="718.79" y1="620.56" x2=".21" y2="620.56" fill="none" stroke="#000" stroke-miterlimit="10"/><line x1="718.75" y1="600.59" x2=".17" y2="600.59" fill="none" stroke="#000" stroke-miterlimit="10"/><line x1="718.75" y1="580.61" x2=".17" y2="580.61" fill="none" stroke="#000" stroke-miterlimit="10"/><line x1="718.83" y1="560.64" x2=".26" y2="560.64" fill="none" stroke="#000" stroke-miterlimit="10"/><line x1="718.83" y1="540.66" x2=".26" y2="540.66" fill="none" stroke="#000" stroke-miterlimit="10"/><line x1="719.01" y1="519.89" x2=".43" y2="519.89" fill="none" stroke="#000" stroke-miterlimit="10"/><line x1="719.01" y1="499.92" x2=".43" y2="499.92" fill="none" stroke="#000" stroke-miterlimit="10"/><line x1="719.09" y1="479.95" x2=".52" y2="479.95" fill="none" stroke="#000" stroke-miterlimit="10"/><line x1="719.09" y1="459.97" x2=".52" y2="459.97" fill="none" stroke="#000" stroke-miterlimit="10"/><line x1="719.05" y1="440" x2=".48" y2="440" fill="none" stroke="#000" stroke-miterlimit="10"/><line x1="719.05" y1="420.02" x2=".48" y2="420.02" fill="none" stroke="#000" stroke-miterlimit="10"/><line x1="719.13" y1="400.05" x2=".56" y2="400.05" fill="none" stroke="#000" stroke-miterlimit="10"/><line x1="719.13" y1="380.08" x2=".56" y2="380.08" fill="none" stroke="#000" stroke-miterlimit="10"/><line x1="718.86" y1="361.17" x2=".29" y2="361.17" fill="none" stroke="#000" stroke-miterlimit="10"/><line x1="718.86" y1="341.2" x2=".29" y2="341.2" fill="none" stroke="#000" stroke-miterlimit="10"/><line x1="718.94" y1="321.22" x2=".37" y2="321.22" fill="none" stroke="#000" stroke-miterlimit="10"/><line x1="718.94" y1="301.25" x2=".37" y2="301.25" fill="none" stroke="#000" stroke-miterlimit="10"/><line x1="718.9" y1="281.27" x2=".33" y2="281.27" fill="none" stroke="#000" stroke-miterlimit="10"/><line x1="718.9" y1="261.3" x2=".33" y2="261.3" fill="none" stroke="#000" stroke-miterlimit="10"/><line x1="718.98" y1="241.33" x2=".41" y2="241.33" fill="none" stroke="#000" stroke-miterlimit="10"/><line x1="718.98" y1="221.35" x2=".41" y2="221.35" fill="none" stroke="#000" stroke-miterlimit="10"/><line x1="719.16" y1="200.58" x2=".59" y2="200.58" fill="none" stroke="#000" stroke-miterlimit="10"/><line x1="719.16" y1="180.61" x2=".59" y2="180.61" fill="none" stroke="#000" stroke-miterlimit="10"/><line x1="719.24" y1="160.63" x2=".67" y2="160.63" fill="none" stroke="#000" stroke-miterlimit="10"/><line x1="719.24" y1="140.66" x2=".67" y2="140.66" fill="none" stroke="#000" stroke-miterlimit="10"/><line x1="719.2" y1="120.69" x2=".63" y2="120.69" fill="none" stroke="#000" stroke-miterlimit="10"/><line x1="719.2" y1="100.71" x2=".63" y2="100.71" fill="none" stroke="#000" stroke-miterlimit="10"/><line x1="719.28" y1="80.74" x2=".71" y2="80.74" fill="none" stroke="#000" stroke-miterlimit="10"/><line x1="719.28" y1="60.77" x2=".71" y2="60.77" fill="none" stroke="#000" stroke-miterlimit="10"/><line x1="719.03" y1="41.19" x2=".46" y2="41.19" fill="none" stroke="#000" stroke-miterlimit="10"/><line x1="719.11" y1="21.22" x2=".54" y2="21.22" fill="none" stroke="#000" stroke-miterlimit="10"/><line x1="719.11" y1="1.25" x2=".54" y2="1.25" fill="none" stroke="#000" stroke-miterlimit="10"/><line x1="718.79" y1="1273.97" x2=".21" y2="1273.97" fill="none" stroke="#000" stroke-miterlimit="10"/><line x1="718.79" y1="1255.96" x2=".21" y2="1255.96" fill="none" stroke="#000" stroke-miterlimit="10"/><line x1="718.75" y1="1237.94" x2=".17" y2="1237.94" fill="none" stroke="#000" stroke-miterlimit="10"/><line x1="718.75" y1="1219.93" x2=".17" y2="1219.93" fill="none" stroke="#000" stroke-miterlimit="10"/><line x1="718.83" y1="1201.91" x2=".26" y2="1201.92" fill="none" stroke="#000" stroke-miterlimit="10"/><line x1="718.83" y1="1183.9" x2=".26" y2="1183.9" fill="none" stroke="#000" stroke-miterlimit="10"/><line x1="719.01" y1="1165.16" x2=".43" y2="1165.16" fill="none" stroke="#000" stroke-miterlimit="10"/><line x1="719.01" y1="1147.14" x2=".43" y2="1147.14" fill="none" stroke="#000" stroke-miterlimit="10"/><line x1="719.09" y1="1129.13" x2=".52" y2="1129.13" fill="none" stroke="#000" stroke-miterlimit="10"/><line x1="719.09" y1="1111.11" x2=".52" y2="1111.11" fill="none" stroke="#000" stroke-miterlimit="10"/><line x1="719.05" y1="1093.09" x2=".48" y2="1093.09" fill="none" stroke="#000" stroke-miterlimit="10"/><line x1="719.05" y1="1075.08" x2=".48" y2="1075.08" fill="none" stroke="#000" stroke-miterlimit="10"/><line x1="719.13" y1="1057.07" x2=".56" y2="1057.07" fill="none" stroke="#000" stroke-miterlimit="10"/><line x1="719.13" y1="1039.05" x2=".56" y2="1039.05" fill="none" stroke="#000" stroke-miterlimit="10"/><line x1="718.86" y1="1021.99" x2=".29" y2="1021.99" fill="none" stroke="#000" stroke-miterlimit="10"/><line x1="718.86" y1="1003.98" x2=".29" y2="1003.98" fill="none" stroke="#000" stroke-miterlimit="10"/><line x1="718.94" y1="985.96" x2=".37" y2="985.96" fill="none" stroke="#000" stroke-miterlimit="10"/><line x1="718.94" y1="967.95" x2=".37" y2="967.95" fill="none" stroke="#000" stroke-miterlimit="10"/><line x1="718.9" y1="949.93" x2=".33" y2="949.93" fill="none" stroke="#000" stroke-miterlimit="10"/><line x1="718.9" y1="931.91" x2=".33" y2="931.91" fill="none" stroke="#000" stroke-miterlimit="10"/><line x1="718.98" y1="913.9" x2=".41" y2="913.9" fill="none" stroke="#000" stroke-miterlimit="10"/><line x1="718.98" y1="895.88" x2=".41" y2="895.89" fill="none" stroke="#000" stroke-miterlimit="10"/><line x1="719.16" y1="877.15" x2=".59" y2="877.15" fill="none" stroke="#000" stroke-miterlimit="10"/><line x1="719.16" y1="859.13" x2=".59" y2="859.13" fill="none" stroke="#000" stroke-miterlimit="10"/><line x1="719.24" y1="841.11" x2=".67" y2="841.11" fill="none" stroke="#000" stroke-miterlimit="10"/><line x1="719.24" y1="823.1" x2=".67" y2="823.1" fill="none" stroke="#000" stroke-miterlimit="10"/><line x1="719.2" y1="805.08" x2=".63" y2="805.08" fill="none" stroke="#000" stroke-miterlimit="10"/></g><g id="Capa_4"><g><line x1="65.72" y1="585.31" x2="32.43" y2="585.31" fill="none" stroke="#abd454" stroke-miterlimit="10" stroke-width="6"/><line x1="15.95" y1="599.95" x2="33.8" y2="584.97" fill="none" stroke="#abd454" stroke-miterlimit="10" stroke-width="6"/></g><g><line x1="184.41" y1="585.97" x2="217.71" y2="585.97" fill="none" stroke="#abd454" stroke-miterlimit="10" stroke-width="6"/><line x1="234.19" y1="600.62" x2="216.34" y2="585.64" fill="none" stroke="#abd454" stroke-miterlimit="10" stroke-width="6"/></g><g><line x1="65.42" y1="837.64" x2="32.12" y2="837.64" fill="none" stroke="#abd454" stroke-miterlimit="10" stroke-width="6"/><line x1="15.64" y1="822.99" x2="33.49" y2="837.97" fill="none" stroke="#abd454" stroke-miterlimit="10" stroke-width="6"/></g><g><line x1="184.11" y1="836.97" x2="217.4" y2="836.97" fill="none" stroke="#abd454" stroke-miterlimit="10" stroke-width="6"/><line x1="233.88" y1="822.33" x2="216.03" y2="837.31" fill="none" stroke="#abd454" stroke-miterlimit="10" stroke-width="6"/></g></g><g id="Capa_2"><rect y="638.49" width="719.81" height="166.45" fill="#686a69"/><line x1=".85" y1="636.36" x2="720" y2="636.36" fill="none" stroke="#abd454" stroke-miterlimit="1.18" stroke-width="6"/><line x1=".1" y1="806.8" x2="719.25" y2="806.8" fill="none" stroke="#abd454" stroke-miterlimit="1.18" stroke-width="6"/><rect x=".17" y="638.97" width="719.81" height="166.45" fill="url(#hatch-black-dash-4)"/></g></svg>