<?xml version="1.0" encoding="UTF-8"?><svg xmlns="http://www.w3.org/2000/svg" xmlns:xlink="http://www.w3.org/1999/xlink" viewBox="0 0 3704.49 2131.86"><defs><pattern id="hatch-black-dash-4" x="0" y="0" width="21.09" height="17.57" patternTransform="translate(1690.67 24.59)" patternUnits="userSpaceOnUse" viewBox="0 0 21.09 17.57"><g><rect y="0" width="21.09" height="17.57" fill="none"/><line x1="-3.53" y1="17.57" x2="3.53" y2="17.57" fill="none" stroke="#000" stroke-dasharray="0 0 0 0 0 0 1.18 1.18" stroke-miterlimit="1.18" stroke-width=".29"/><line x1="17.56" y1="17.57" x2="24.62" y2="17.57" fill="none" stroke="#000" stroke-dasharray="0 0 0 0 0 0 1.18 1.18" stroke-miterlimit="1.18" stroke-width=".29"/><line x1="-3.53" y1="11.71" x2="3.53" y2="11.71" fill="none" stroke="#000" stroke-dasharray="0 0 0 0 0 0 1.18 1.18" stroke-miterlimit="1.18" stroke-width=".29"/><line x1="7.02" y1="14.64" x2="14.08" y2="14.64" fill="none" stroke="#000" stroke-dasharray="0 0 0 0 0 0 1.18 1.18" stroke-miterlimit="1.18" stroke-width=".29"/><line x1="17.56" y1="11.71" x2="24.62" y2="11.71" fill="none" stroke="#000" stroke-dasharray="0 0 0 0 0 0 1.18 1.18" stroke-miterlimit="1.18" stroke-width=".29"/><line x1="-3.53" y1="5.86" x2="3.53" y2="5.86" fill="none" stroke="#000" stroke-dasharray="0 0 0 0 0 0 1.18 1.18" stroke-miterlimit="1.18" stroke-width=".29"/><line x1="7.02" y1="8.78" x2="14.08" y2="8.78" fill="none" stroke="#000" stroke-dasharray="0 0 0 0 0 0 1.18 1.18" stroke-miterlimit="1.18" stroke-width=".29"/><line x1="17.56" y1="5.86" x2="24.62" y2="5.86" fill="none" stroke="#000" stroke-dasharray="0 0 0 0 0 0 1.18 1.18" stroke-miterlimit="1.18" stroke-width=".29"/><line x1="-3.53" y1="0" x2="3.53" y2="0" fill="none" stroke="#000" stroke-dasharray="0 0 0 0 0 0 1.18 1.18" stroke-miterlimit="1.18" stroke-width=".29"/><line x1="7.02" y1="2.93" x2="14.08" y2="2.93" fill="none" stroke="#000" stroke-dasharray="0 0 0 0 0 0 1.18 1.18" stroke-miterlimit="1.18" stroke-width=".29"/><line x1="17.56" y1="0" x2="24.62" y2="0" fill="none" stroke="#000" stroke-dasharray="0 0 0 0 0 0 1.18 1.18" stroke-miterlimit="1.18" stroke-width=".29"/></g></pattern></defs><g id="Capa_3"><rect x="1691.67" y="25.59" width="1080" height="1920" fill="#00b58f"/><rect x="1690.87" y="879.66" width="1080" height="100" fill="#272726"/><rect x="1691.67" y="780.59" width="1080" height="100" fill="#2f3030"/></g><g id="Capa_1" opacity=".5"><line x1="1720.67" y1="1946.59" x2="1720.67" y2="26.59" fill="none" stroke="#000" stroke-miterlimit="10"/><line x1="1750.67" y1="1946.59" x2="1750.67" y2="26.59" fill="none" stroke="#000" stroke-miterlimit="10"/><line x1="1780.67" y1="1946.81" x2="1780.67" y2="26.81" fill="none" stroke="#000" stroke-miterlimit="10"/><line x1="1810.67" y1="1946.81" x2="1810.67" y2="26.81" fill="none" stroke="#000" stroke-miterlimit="10"/><line x1="1840.67" y1="1946.7" x2="1840.67" y2="26.7" fill="none" stroke="#000" stroke-miterlimit="10"/><line x1="1870.67" y1="1946.7" x2="1870.67" y2="26.7" fill="none" stroke="#000" stroke-miterlimit="10"/><line x1="1900.67" y1="1946.92" x2="1900.67" y2="26.92" fill="none" stroke="#000" stroke-miterlimit="10"/><line x1="1930.67" y1="1946.92" x2="1930.67" y2="26.92" fill="none" stroke="#000" stroke-miterlimit="10"/><line x1="1961.87" y1="1947.4" x2="1961.87" y2="27.4" fill="none" stroke="#000" stroke-miterlimit="10"/><line x1="1991.87" y1="1947.4" x2="1991.87" y2="27.4" fill="none" stroke="#000" stroke-miterlimit="10"/><line x1="2021.87" y1="1947.62" x2="2021.87" y2="27.62" fill="none" stroke="#000" stroke-miterlimit="10"/><line x1="2051.87" y1="1947.62" x2="2051.87" y2="27.62" fill="none" stroke="#000" stroke-miterlimit="10"/><line x1="2081.87" y1="1947.51" x2="2081.87" y2="27.51" fill="none" stroke="#000" stroke-miterlimit="10"/><line x1="2111.87" y1="1947.51" x2="2111.87" y2="27.51" fill="none" stroke="#000" stroke-miterlimit="10"/><line x1="2141.87" y1="1947.72" x2="2141.87" y2="27.72" fill="none" stroke="#000" stroke-miterlimit="10"/><line x1="2171.87" y1="1947.72" x2="2171.87" y2="27.72" fill="none" stroke="#000" stroke-miterlimit="10"/><line x1="2200.27" y1="1947" x2="2200.27" y2="27" fill="none" stroke="#000" stroke-miterlimit="10"/><line x1="2230.27" y1="1947" x2="2230.27" y2="27" fill="none" stroke="#000" stroke-miterlimit="10"/><line x1="2260.27" y1="1947.21" x2="2260.27" y2="27.21" fill="none" stroke="#000" stroke-miterlimit="10"/><line x1="2290.27" y1="1947.21" x2="2290.27" y2="27.21" fill="none" stroke="#000" stroke-miterlimit="10"/><line x1="2320.27" y1="1947.1" x2="2320.27" y2="27.1" fill="none" stroke="#000" stroke-miterlimit="10"/><line x1="2350.27" y1="1947.1" x2="2350.27" y2="27.1" fill="none" stroke="#000" stroke-miterlimit="10"/><line x1="2380.27" y1="1947.32" x2="2380.27" y2="27.32" fill="none" stroke="#000" stroke-miterlimit="10"/><line x1="2410.27" y1="1947.32" x2="2410.27" y2="27.32" fill="none" stroke="#000" stroke-miterlimit="10"/><line x1="2441.47" y1="1947.8" x2="2441.47" y2="27.8" fill="none" stroke="#000" stroke-miterlimit="10"/><line x1="2471.47" y1="1947.8" x2="2471.47" y2="27.8" fill="none" stroke="#000" stroke-miterlimit="10"/><line x1="2501.47" y1="1948.02" x2="2501.47" y2="28.02" fill="none" stroke="#000" stroke-miterlimit="10"/><line x1="2531.47" y1="1948.02" x2="2531.47" y2="28.02" fill="none" stroke="#000" stroke-miterlimit="10"/><line x1="2561.47" y1="1947.91" x2="2561.47" y2="27.91" fill="none" stroke="#000" stroke-miterlimit="10"/><line x1="2591.47" y1="1947.91" x2="2591.47" y2="27.91" fill="none" stroke="#000" stroke-miterlimit="10"/><line x1="2621.47" y1="1948.13" x2="2621.47" y2="28.13" fill="none" stroke="#000" stroke-miterlimit="10"/><line x1="2651.47" y1="1948.13" x2="2651.47" y2="28.13" fill="none" stroke="#000" stroke-miterlimit="10"/><line x1="2680.87" y1="1947.45" x2="2680.87" y2="27.45" fill="none" stroke="#000" stroke-miterlimit="10"/><line x1="2710.87" y1="1947.67" x2="2710.87" y2="27.67" fill="none" stroke="#000" stroke-miterlimit="10"/><line x1="2740.87" y1="1947.67" x2="2740.87" y2="27.67" fill="none" stroke="#000" stroke-miterlimit="10"/><line x1="2770.13" y1="987.66" x2="1690.99" y2="987.66" fill="none" stroke="#000" stroke-miterlimit="10"/><line x1="2770.13" y1="957.66" x2="1690.99" y2="957.66" fill="none" stroke="#000" stroke-miterlimit="10"/><line x1="2770.07" y1="927.66" x2="1690.93" y2="927.66" fill="none" stroke="#000" stroke-miterlimit="10"/><line x1="2770.07" y1="897.66" x2="1690.93" y2="897.66" fill="none" stroke="#000" stroke-miterlimit="10"/><line x1="2770.19" y1="867.66" x2="1691.06" y2="867.66" fill="none" stroke="#000" stroke-miterlimit="10"/><line x1="2770.19" y1="837.66" x2="1691.06" y2="837.66" fill="none" stroke="#000" stroke-miterlimit="10"/><line x1="2770.46" y1="806.46" x2="1691.32" y2="806.46" fill="none" stroke="#000" stroke-miterlimit="10"/><line x1="2770.46" y1="776.46" x2="1691.32" y2="776.46" fill="none" stroke="#000" stroke-miterlimit="10"/><line x1="2770.59" y1="746.46" x2="1691.45" y2="746.46" fill="none" stroke="#000" stroke-miterlimit="10"/><line x1="2770.58" y1="716.46" x2="1691.45" y2="716.46" fill="none" stroke="#000" stroke-miterlimit="10"/><line x1="2770.52" y1="686.46" x2="1691.39" y2="686.46" fill="none" stroke="#000" stroke-miterlimit="10"/><line x1="2770.52" y1="656.46" x2="1691.39" y2="656.46" fill="none" stroke="#000" stroke-miterlimit="10"/><line x1="2770.65" y1="626.46" x2="1691.51" y2="626.46" fill="none" stroke="#000" stroke-miterlimit="10"/><line x1="2770.65" y1="596.46" x2="1691.51" y2="596.46" fill="none" stroke="#000" stroke-miterlimit="10"/><line x1="2770.24" y1="568.06" x2="1691.1" y2="568.06" fill="none" stroke="#000" stroke-miterlimit="10"/><line x1="2770.24" y1="538.06" x2="1691.1" y2="538.06" fill="none" stroke="#000" stroke-miterlimit="10"/><line x1="2770.36" y1="508.06" x2="1691.22" y2="508.06" fill="none" stroke="#000" stroke-miterlimit="10"/><line x1="2770.36" y1="478.06" x2="1691.22" y2="478.06" fill="none" stroke="#000" stroke-miterlimit="10"/><line x1="2770.3" y1="448.06" x2="1691.16" y2="448.06" fill="none" stroke="#000" stroke-miterlimit="10"/><line x1="2770.3" y1="418.06" x2="1691.16" y2="418.06" fill="none" stroke="#000" stroke-miterlimit="10"/><line x1="2770.42" y1="388.06" x2="1691.28" y2="388.06" fill="none" stroke="#000" stroke-miterlimit="10"/><line x1="2770.42" y1="358.06" x2="1691.28" y2="358.06" fill="none" stroke="#000" stroke-miterlimit="10"/><line x1="2770.69" y1="326.86" x2="1691.55" y2="326.86" fill="none" stroke="#000" stroke-miterlimit="10"/><line x1="2770.69" y1="296.86" x2="1691.55" y2="296.86" fill="none" stroke="#000" stroke-miterlimit="10"/><line x1="2770.81" y1="266.86" x2="1691.67" y2="266.86" fill="none" stroke="#000" stroke-miterlimit="10"/><line x1="2770.81" y1="236.86" x2="1691.67" y2="236.86" fill="none" stroke="#000" stroke-miterlimit="10"/><line x1="2770.75" y1="206.86" x2="1691.61" y2="206.86" fill="none" stroke="#000" stroke-miterlimit="10"/><line x1="2770.75" y1="176.86" x2="1691.61" y2="176.86" fill="none" stroke="#000" stroke-miterlimit="10"/><line x1="2770.87" y1="146.86" x2="1691.73" y2="146.86" fill="none" stroke="#000" stroke-miterlimit="10"/><line x1="2770.87" y1="116.86" x2="1691.73" y2="116.86" fill="none" stroke="#000" stroke-miterlimit="10"/><line x1="2770.49" y1="87.46" x2="1691.36" y2="87.46" fill="none" stroke="#000" stroke-miterlimit="10"/><line x1="2770.62" y1="57.46" x2="1691.48" y2="57.46" fill="none" stroke="#000" stroke-miterlimit="10"/><line x1="2770.62" y1="27.46" x2="1691.48" y2="27.46" fill="none" stroke="#000" stroke-miterlimit="10"/><line x1="2770.13" y1="1939.08" x2="1690.99" y2="1939.08" fill="none" stroke="#000" stroke-miterlimit="10"/><line x1="2770.13" y1="1912.02" x2="1690.99" y2="1912.02" fill="none" stroke="#000" stroke-miterlimit="10"/><line x1="2770.07" y1="1884.96" x2="1690.93" y2="1884.96" fill="none" stroke="#000" stroke-miterlimit="10"/><line x1="2770.07" y1="1857.9" x2="1690.93" y2="1857.9" fill="none" stroke="#000" stroke-miterlimit="10"/><line x1="2770.19" y1="1830.84" x2="1691.06" y2="1830.85" fill="none" stroke="#000" stroke-miterlimit="10"/><line x1="2770.19" y1="1803.79" x2="1691.06" y2="1803.79" fill="none" stroke="#000" stroke-miterlimit="10"/><line x1="2770.46" y1="1775.64" x2="1691.32" y2="1775.64" fill="none" stroke="#000" stroke-miterlimit="10"/><line x1="2770.46" y1="1748.58" x2="1691.32" y2="1748.58" fill="none" stroke="#000" stroke-miterlimit="10"/><line x1="2770.58" y1="1721.52" x2="1691.45" y2="1721.52" fill="none" stroke="#000" stroke-miterlimit="10"/><line x1="2770.58" y1="1694.46" x2="1691.45" y2="1694.46" fill="none" stroke="#000" stroke-miterlimit="10"/><line x1="2770.52" y1="1667.4" x2="1691.39" y2="1667.4" fill="none" stroke="#000" stroke-miterlimit="10"/><line x1="2770.52" y1="1640.34" x2="1691.39" y2="1640.35" fill="none" stroke="#000" stroke-miterlimit="10"/><line x1="2770.65" y1="1613.29" x2="1691.51" y2="1613.29" fill="none" stroke="#000" stroke-miterlimit="10"/><line x1="2770.65" y1="1586.23" x2="1691.51" y2="1586.23" fill="none" stroke="#000" stroke-miterlimit="10"/><line x1="2770.24" y1="1560.61" x2="1691.1" y2="1560.61" fill="none" stroke="#000" stroke-miterlimit="10"/><line x1="2770.24" y1="1533.55" x2="1691.1" y2="1533.55" fill="none" stroke="#000" stroke-miterlimit="10"/><line x1="2770.36" y1="1506.49" x2="1691.22" y2="1506.49" fill="none" stroke="#000" stroke-miterlimit="10"/><line x1="2770.36" y1="1479.43" x2="1691.22" y2="1479.43" fill="none" stroke="#000" stroke-miterlimit="10"/><line x1="2770.3" y1="1452.37" x2="1691.16" y2="1452.37" fill="none" stroke="#000" stroke-miterlimit="10"/><line x1="2770.3" y1="1425.31" x2="1691.16" y2="1425.31" fill="none" stroke="#000" stroke-miterlimit="10"/><line x1="2770.42" y1="1398.25" x2="1691.28" y2="1398.25" fill="none" stroke="#000" stroke-miterlimit="10"/><line x1="2770.42" y1="1371.19" x2="1691.28" y2="1371.2" fill="none" stroke="#000" stroke-miterlimit="10"/><line x1="2770.69" y1="1343.05" x2="1691.55" y2="1343.05" fill="none" stroke="#000" stroke-miterlimit="10"/><line x1="2770.69" y1="1315.99" x2="1691.55" y2="1315.99" fill="none" stroke="#000" stroke-miterlimit="10"/><line x1="2770.81" y1="1288.93" x2="1691.67" y2="1288.93" fill="none" stroke="#000" stroke-miterlimit="10"/><line x1="2770.81" y1="1261.87" x2="1691.67" y2="1261.87" fill="none" stroke="#000" stroke-miterlimit="10"/><line x1="2770.75" y1="1234.81" x2="1691.61" y2="1234.81" fill="none" stroke="#000" stroke-miterlimit="10"/><rect id="svgEditorBackground" width="3704.49" height="2131.86" fill="none"/></g><g id="Capa_4"><g><line x1="1789.37" y1="904.71" x2="1739.37" y2="904.71" fill="none" stroke="#abd454" stroke-miterlimit="10" stroke-width="6"/><line x1="1714.62" y1="926.71" x2="1741.43" y2="904.21" fill="none" stroke="#abd454" stroke-miterlimit="10" stroke-width="6"/></g><g><line x1="1967.62" y1="905.71" x2="2017.62" y2="905.71" fill="none" stroke="#abd454" stroke-miterlimit="10" stroke-width="6"/><line x1="2042.37" y1="927.71" x2="2015.56" y2="905.21" fill="none" stroke="#abd454" stroke-miterlimit="10" stroke-width="6"/></g><g><line x1="1788.91" y1="1283.71" x2="1738.91" y2="1283.71" fill="none" stroke="#abd454" stroke-miterlimit="10" stroke-width="6"/><line x1="1714.16" y1="1261.71" x2="1740.97" y2="1284.21" fill="none" stroke="#abd454" stroke-miterlimit="10" stroke-width="6"/></g><g><line x1="1967.16" y1="1282.71" x2="2017.16" y2="1282.71" fill="none" stroke="#abd454" stroke-miterlimit="10" stroke-width="6"/><line x1="2041.91" y1="1260.71" x2="2015.1" y2="1283.21" fill="none" stroke="#abd454" stroke-miterlimit="10" stroke-width="6"/></g></g><g id="Capa_2"><rect x="1690.67" y="984.59" width="1081" height="250" fill="#686a69"/><line x1="1691.95" y1="981.39" x2="2771.95" y2="981.39" fill="none" stroke="#abd454" stroke-miterlimit="1.18" stroke-width="6"/><line x1="1690.82" y1="1237.39" x2="2770.82" y2="1237.39" fill="none" stroke="#abd454" stroke-miterlimit="1.18" stroke-width="6"/><rect x="1690.93" y="985.32" width="1081" height="250" fill="url(#hatch-black-dash-4)"/></g></svg>